<mxfile host="65bd71144e">
    <diagram id="qnEBHfTs_Ac6ON2NvuSR" name="ページ1">
        <mxGraphModel dx="2315" dy="775" grid="1" gridSize="10" guides="1" tooltips="1" connect="1" arrows="1" fold="1" page="1" pageScale="1" pageWidth="827" pageHeight="1169" math="0" shadow="0">
            <root>
                <mxCell id="0"/>
                <mxCell id="1" parent="0"/>
                <mxCell id="56" value="" style="rounded=0;whiteSpace=wrap;html=1;" parent="1" vertex="1">
                    <mxGeometry x="-100" y="710" width="180" height="400" as="geometry"/>
                </mxCell>
                <mxCell id="3" value="" style="rounded=1;whiteSpace=wrap;html=1;" parent="1" vertex="1">
                    <mxGeometry x="30" y="30" width="240" height="130" as="geometry"/>
                </mxCell>
                <mxCell id="6" value="" style="shape=flexArrow;endArrow=classic;html=1;endWidth=32.816326530612244;endSize=11.98857142857143;width=16.571428571428573;" parent="1" edge="1">
                    <mxGeometry width="50" height="50" relative="1" as="geometry">
                        <mxPoint x="290" y="100" as="sourcePoint"/>
                        <mxPoint x="550" y="130" as="targetPoint"/>
                        <Array as="points">
                            <mxPoint x="400" y="100"/>
                            <mxPoint x="470" y="130"/>
                        </Array>
                    </mxGeometry>
                </mxCell>
                <mxCell id="7" value="VC作成" style="text;strokeColor=none;fillColor=none;html=1;fontSize=24;fontStyle=1;verticalAlign=middle;align=center;" parent="1" vertex="1">
                    <mxGeometry x="100" y="75" width="100" height="40" as="geometry"/>
                </mxCell>
                <mxCell id="10" value="" style="rounded=1;whiteSpace=wrap;html=1;" parent="1" vertex="1">
                    <mxGeometry x="560" y="70" width="190" height="130" as="geometry"/>
                </mxCell>
                <mxCell id="11" value="VCの数が&lt;br&gt;{Config}の&lt;br&gt;値" style="text;strokeColor=none;fillColor=none;html=1;fontSize=24;fontStyle=1;verticalAlign=middle;align=center;" parent="1" vertex="1">
                    <mxGeometry x="570" y="80" width="170" height="110" as="geometry"/>
                </mxCell>
                <mxCell id="12" value="" style="shape=flexArrow;endArrow=classic;html=1;width=15.428571428571429;endSize=5.5371428571428565;" parent="1" edge="1">
                    <mxGeometry width="50" height="50" relative="1" as="geometry">
                        <mxPoint x="654.71" y="210" as="sourcePoint"/>
                        <mxPoint x="510" y="300" as="targetPoint"/>
                        <Array as="points">
                            <mxPoint x="655" y="250"/>
                            <mxPoint x="580" y="250"/>
                            <mxPoint x="580" y="300"/>
                        </Array>
                    </mxGeometry>
                </mxCell>
                <mxCell id="13" value="" style="shape=flexArrow;endArrow=classic;html=1;" parent="1" edge="1">
                    <mxGeometry width="50" height="50" relative="1" as="geometry">
                        <mxPoint x="700" y="210" as="sourcePoint"/>
                        <mxPoint x="700" y="270" as="targetPoint"/>
                    </mxGeometry>
                </mxCell>
                <mxCell id="14" value="ではない時" style="text;strokeColor=none;fillColor=none;html=1;fontSize=24;fontStyle=1;verticalAlign=middle;align=center;" parent="1" vertex="1">
                    <mxGeometry x="540" y="200" width="100" height="40" as="geometry"/>
                </mxCell>
                <mxCell id="15" value="であるとき" style="text;strokeColor=none;fillColor=none;html=1;fontSize=24;fontStyle=1;verticalAlign=middle;align=center;" parent="1" vertex="1">
                    <mxGeometry x="710" y="210" width="100" height="40" as="geometry"/>
                </mxCell>
                <mxCell id="17" value="" style="rounded=1;whiteSpace=wrap;html=1;" parent="1" vertex="1">
                    <mxGeometry x="620" y="270" width="170" height="100" as="geometry"/>
                </mxCell>
                <mxCell id="18" value="VCから&lt;br&gt;キックしてDM" style="text;strokeColor=none;fillColor=none;html=1;fontSize=24;fontStyle=1;verticalAlign=middle;align=center;" parent="1" vertex="1">
                    <mxGeometry x="655" y="300" width="100" height="40" as="geometry"/>
                </mxCell>
                <mxCell id="20" value="" style="rounded=1;whiteSpace=wrap;html=1;" parent="1" vertex="1">
                    <mxGeometry x="324" y="230" width="180" height="220" as="geometry"/>
                </mxCell>
                <mxCell id="21" value="VC作成&lt;br&gt;+&lt;br&gt;ダッシュボード&lt;br&gt;送信&lt;br&gt;+&lt;br&gt;オーナー指定" style="text;strokeColor=none;fillColor=none;html=1;fontSize=24;fontStyle=1;verticalAlign=middle;align=center;" parent="1" vertex="1">
                    <mxGeometry x="364" y="310" width="100" height="40" as="geometry"/>
                </mxCell>
                <mxCell id="22" value="" style="shape=flexArrow;endArrow=classic;html=1;width=20;endSize=9.72;endWidth=22.285714285714285;startArrow=none;" parent="1" edge="1">
                    <mxGeometry width="50" height="50" relative="1" as="geometry">
                        <mxPoint x="220" y="310" as="sourcePoint"/>
                        <mxPoint x="220" y="380" as="targetPoint"/>
                        <Array as="points"/>
                    </mxGeometry>
                </mxCell>
                <mxCell id="23" value="" style="rounded=1;whiteSpace=wrap;html=1;" parent="1" vertex="1">
                    <mxGeometry x="30" y="170" width="230" height="70" as="geometry"/>
                </mxCell>
                <mxCell id="24" value="退出" style="text;strokeColor=none;fillColor=none;html=1;fontSize=24;fontStyle=1;verticalAlign=middle;align=center;" parent="1" vertex="1">
                    <mxGeometry x="90" y="185" width="100" height="40" as="geometry"/>
                </mxCell>
                <mxCell id="25" value="VCの人数が&lt;br&gt;0だったら" style="text;strokeColor=none;fillColor=none;html=1;fontSize=24;fontStyle=1;verticalAlign=middle;align=center;" parent="1" vertex="1">
                    <mxGeometry x="190" y="290" width="70" height="20" as="geometry"/>
                </mxCell>
                <mxCell id="26" value="" style="shape=flexArrow;endArrow=none;html=1;width=20;endSize=9.72;endWidth=22.285714285714285;" parent="1" edge="1">
                    <mxGeometry width="50" height="50" relative="1" as="geometry">
                        <mxPoint x="220" y="250" as="sourcePoint"/>
                        <mxPoint x="220" y="290" as="targetPoint"/>
                        <Array as="points">
                            <mxPoint x="220" y="280"/>
                        </Array>
                    </mxGeometry>
                </mxCell>
                <mxCell id="27" style="edgeStyle=none;html=1;exitX=0.5;exitY=1;exitDx=0;exitDy=0;entryX=0.343;entryY=1.031;entryDx=0;entryDy=0;entryPerimeter=0;" parent="1" source="25" target="25" edge="1">
                    <mxGeometry relative="1" as="geometry"/>
                </mxCell>
                <mxCell id="28" value="チャンネル削除" style="rounded=1;whiteSpace=wrap;html=1;" parent="1" vertex="1">
                    <mxGeometry x="150" y="380" width="150" height="80" as="geometry"/>
                </mxCell>
                <mxCell id="32" value="" style="shape=flexArrow;endArrow=classic;html=1;width=29.166666666666668;endSize=11.158333333333335;startArrow=none;" parent="1" source="33" target="43" edge="1">
                    <mxGeometry width="50" height="50" relative="1" as="geometry">
                        <mxPoint x="90" y="250" as="sourcePoint"/>
                        <mxPoint x="90" y="460" as="targetPoint"/>
                    </mxGeometry>
                </mxCell>
                <mxCell id="33" value="もし人数が&lt;br&gt;1以上だったら" style="text;strokeColor=none;fillColor=none;html=1;fontSize=24;fontStyle=1;verticalAlign=middle;align=center;" parent="1" vertex="1">
                    <mxGeometry x="40" y="330" width="100" height="40" as="geometry"/>
                </mxCell>
                <mxCell id="34" value="" style="shape=flexArrow;endArrow=none;html=1;width=29.166666666666668;endSize=11.158333333333335;" parent="1" target="33" edge="1">
                    <mxGeometry width="50" height="50" relative="1" as="geometry">
                        <mxPoint x="90" y="250.0000000000001" as="sourcePoint"/>
                        <mxPoint x="90" y="500" as="targetPoint"/>
                    </mxGeometry>
                </mxCell>
                <mxCell id="37" value="" style="shape=flexArrow;endArrow=classic;html=1;width=23.333333333333336;endSize=7.308333333333334;" parent="1" edge="1">
                    <mxGeometry width="50" height="50" relative="1" as="geometry">
                        <mxPoint x="80" y="530" as="sourcePoint"/>
                        <mxPoint x="330" y="710" as="targetPoint"/>
                        <Array as="points">
                            <mxPoint x="330" y="640"/>
                        </Array>
                    </mxGeometry>
                </mxCell>
                <mxCell id="38" value="" style="shape=flexArrow;endArrow=classic;html=1;width=20.833333333333336;endSize=6.825;" parent="1" edge="1">
                    <mxGeometry width="50" height="50" relative="1" as="geometry">
                        <mxPoint x="90" y="540" as="sourcePoint"/>
                        <mxPoint x="-10" y="740" as="targetPoint"/>
                        <Array as="points">
                            <mxPoint x="-10" y="580"/>
                        </Array>
                    </mxGeometry>
                </mxCell>
                <mxCell id="39" value="" style="shape=flexArrow;endArrow=classic;html=1;width=23.333333333333336;endSize=7.825000000000001;" parent="1" edge="1">
                    <mxGeometry width="50" height="50" relative="1" as="geometry">
                        <mxPoint x="90" y="530" as="sourcePoint"/>
                        <mxPoint x="170" y="710" as="targetPoint"/>
                        <Array as="points">
                            <mxPoint x="90" y="610"/>
                            <mxPoint x="130" y="610"/>
                            <mxPoint x="170" y="650"/>
                        </Array>
                    </mxGeometry>
                </mxCell>
                <mxCell id="43" value="" style="ellipse;shape=doubleEllipse;whiteSpace=wrap;html=1;aspect=fixed;" parent="1" vertex="1">
                    <mxGeometry x="50" y="480" width="80" height="80" as="geometry"/>
                </mxCell>
                <mxCell id="44" value="もし1以上がbotだったら" style="rounded=1;whiteSpace=wrap;html=1;" parent="1" vertex="1">
                    <mxGeometry x="-90" y="740" width="170" height="90" as="geometry"/>
                </mxCell>
                <mxCell id="45" value="" style="shape=flexArrow;endArrow=classic;html=1;width=30.833333333333336;endSize=7.825000000000001;" parent="1" edge="1">
                    <mxGeometry width="50" height="50" relative="1" as="geometry">
                        <mxPoint x="-10" y="830" as="sourcePoint"/>
                        <mxPoint x="-10" y="950" as="targetPoint"/>
                    </mxGeometry>
                </mxCell>
                <mxCell id="46" value="Botをキック" style="rounded=1;whiteSpace=wrap;html=1;" parent="1" vertex="1">
                    <mxGeometry x="-100" y="950" width="190" height="100" as="geometry"/>
                </mxCell>
                <mxCell id="47" value="" style="curved=1;endArrow=classic;html=1;exitX=0.531;exitY=1.03;exitDx=0;exitDy=0;exitPerimeter=0;entryX=0;entryY=0.5;entryDx=0;entryDy=0;" parent="1" source="46" target="23" edge="1">
                    <mxGeometry width="50" height="50" relative="1" as="geometry">
                        <mxPoint x="20" y="1110" as="sourcePoint"/>
                        <mxPoint x="-90" y="260" as="targetPoint"/>
                        <Array as="points">
                            <mxPoint x="10" y="1140"/>
                            <mxPoint x="-230" y="1080"/>
                            <mxPoint x="-210" y="250"/>
                        </Array>
                    </mxGeometry>
                </mxCell>
                <mxCell id="48" value="1以上がユーザーだったら" style="rounded=1;whiteSpace=wrap;html=1;" parent="1" vertex="1">
                    <mxGeometry x="90" y="710" width="160" height="100" as="geometry"/>
                </mxCell>
                <mxCell id="49" value="" style="shape=flexArrow;endArrow=classic;html=1;width=37.5;endSize=11.133333333333333;endWidth=27.916666666666668;" parent="1" edge="1">
                    <mxGeometry width="50" height="50" relative="1" as="geometry">
                        <mxPoint x="169.58" y="810" as="sourcePoint"/>
                        <mxPoint x="170" y="960" as="targetPoint"/>
                    </mxGeometry>
                </mxCell>
                <mxCell id="50" value="退出通知" style="rounded=1;whiteSpace=wrap;html=1;" parent="1" vertex="1">
                    <mxGeometry x="100" y="960" width="160" height="80" as="geometry"/>
                </mxCell>
                <mxCell id="51" value="もしオーナーだったら" style="rounded=1;whiteSpace=wrap;html=1;" parent="1" vertex="1">
                    <mxGeometry x="260" y="710" width="160" height="110" as="geometry"/>
                </mxCell>
                <mxCell id="52" value="" style="shape=flexArrow;endArrow=classic;html=1;width=25;endSize=10.825000000000001;" parent="1" edge="1">
                    <mxGeometry width="50" height="50" relative="1" as="geometry">
                        <mxPoint x="340" y="820" as="sourcePoint"/>
                        <mxPoint x="340" y="930" as="targetPoint"/>
                    </mxGeometry>
                </mxCell>
                <mxCell id="53" value="オーナー変更&lt;br&gt;+&lt;br&gt;ダッシュボード" style="rounded=1;whiteSpace=wrap;html=1;" parent="1" vertex="1">
                    <mxGeometry x="290" y="930" width="170" height="110" as="geometry"/>
                </mxCell>
                <mxCell id="54" value="" style="shape=flexArrow;endArrow=classic;html=1;" parent="1" edge="1">
                    <mxGeometry width="50" height="50" relative="1" as="geometry">
                        <mxPoint x="290" y="1010" as="sourcePoint"/>
                        <mxPoint x="260" y="1010" as="targetPoint"/>
                        <Array as="points">
                            <mxPoint x="290" y="1010"/>
                        </Array>
                    </mxGeometry>
                </mxCell>
                <mxCell id="57" value="" style="curved=1;endArrow=classic;html=1;exitX=-0.02;exitY=0.534;exitDx=0;exitDy=0;exitPerimeter=0;" parent="1" source="56" edge="1">
                    <mxGeometry width="50" height="50" relative="1" as="geometry">
                        <mxPoint x="-140" y="910" as="sourcePoint"/>
                        <mxPoint x="-280" y="920" as="targetPoint"/>
                        <Array as="points">
                            <mxPoint x="-160" y="920"/>
                            <mxPoint x="-250" y="990"/>
                        </Array>
                    </mxGeometry>
                </mxCell>
                <mxCell id="58" value="どうせ消すのでここをなくす" style="text;strokeColor=none;fillColor=none;html=1;fontSize=24;fontStyle=1;verticalAlign=middle;align=center;" parent="1" vertex="1">
                    <mxGeometry x="-340" y="880" width="100" height="40" as="geometry"/>
                </mxCell>
            </root>
        </mxGraphModel>
    </diagram>
    <diagram id="817xMwReay4KPxo4FLLE" name="ページ2">
        <mxGraphModel dx="1488" dy="775" grid="1" gridSize="10" guides="1" tooltips="1" connect="1" arrows="1" fold="1" page="1" pageScale="1" pageWidth="827" pageHeight="1169" math="0" shadow="0">
            <root>
                <mxCell id="egB7ZYbfMmoomBiSyNB0-0"/>
                <mxCell id="egB7ZYbfMmoomBiSyNB0-1" parent="egB7ZYbfMmoomBiSyNB0-0"/>
                <mxCell id="egB7ZYbfMmoomBiSyNB0-2" value="ロックモード" style="rounded=1;whiteSpace=wrap;html=1;" parent="egB7ZYbfMmoomBiSyNB0-1" vertex="1">
                    <mxGeometry x="590" y="20" width="210" height="120" as="geometry"/>
                </mxCell>
                <mxCell id="egB7ZYbfMmoomBiSyNB0-3" value="" style="shape=flexArrow;endArrow=classic;html=1;width=22.758620689655174;endSize=9.558620689655172;entryX=0.5;entryY=0;entryDx=0;entryDy=0;" parent="egB7ZYbfMmoomBiSyNB0-1" target="egB7ZYbfMmoomBiSyNB0-4" edge="1">
                    <mxGeometry width="50" height="50" relative="1" as="geometry">
                        <mxPoint x="695" y="140" as="sourcePoint"/>
                        <mxPoint x="694.6600000000001" y="230" as="targetPoint"/>
                    </mxGeometry>
                </mxCell>
                <mxCell id="egB7ZYbfMmoomBiSyNB0-4" value="チャンネルの接続権限をはく奪" style="rounded=1;whiteSpace=wrap;html=1;" parent="egB7ZYbfMmoomBiSyNB0-1" vertex="1">
                    <mxGeometry x="605" y="240" width="180" height="120" as="geometry"/>
                </mxCell>
                <mxCell id="egB7ZYbfMmoomBiSyNB0-5" value="申請モード" style="rounded=1;whiteSpace=wrap;html=1;" parent="egB7ZYbfMmoomBiSyNB0-1" vertex="1">
                    <mxGeometry x="370" y="20" width="190" height="120" as="geometry"/>
                </mxCell>
                <mxCell id="egB7ZYbfMmoomBiSyNB0-6" value="" style="shape=flexArrow;endArrow=classic;html=1;width=26.896551724137932;endSize=9.241379310344827;endWidth=18.145065398335316;entryX=0.5;entryY=0;entryDx=0;entryDy=0;" parent="egB7ZYbfMmoomBiSyNB0-1" target="egB7ZYbfMmoomBiSyNB0-7" edge="1">
                    <mxGeometry width="50" height="50" relative="1" as="geometry">
                        <mxPoint x="464.65999999999997" y="140" as="sourcePoint"/>
                        <mxPoint x="465" y="230" as="targetPoint"/>
                    </mxGeometry>
                </mxCell>
                <mxCell id="egB7ZYbfMmoomBiSyNB0-7" value="選択した人だけ権限付与&lt;br&gt;↓&lt;br&gt;入ったらロックと同じようにする" style="rounded=1;whiteSpace=wrap;html=1;" parent="egB7ZYbfMmoomBiSyNB0-1" vertex="1">
                    <mxGeometry x="380" y="240" width="170" height="110" as="geometry"/>
                </mxCell>
                <mxCell id="egB7ZYbfMmoomBiSyNB0-9" value="通常モード" style="rounded=1;whiteSpace=wrap;html=1;" parent="egB7ZYbfMmoomBiSyNB0-1" vertex="1">
                    <mxGeometry x="180" y="20" width="180" height="120" as="geometry"/>
                </mxCell>
                <mxCell id="egB7ZYbfMmoomBiSyNB0-10" value="そのまま" style="rounded=1;whiteSpace=wrap;html=1;" parent="egB7ZYbfMmoomBiSyNB0-1" vertex="1">
                    <mxGeometry x="185" y="240" width="170" height="100" as="geometry"/>
                </mxCell>
                <mxCell id="egB7ZYbfMmoomBiSyNB0-13" value="" style="shape=flexArrow;endArrow=classic;html=1;entryX=0.5;entryY=0;entryDx=0;entryDy=0;exitX=0.5;exitY=1;exitDx=0;exitDy=0;width=29.655172413793103;endSize=9.303448275862069;" parent="egB7ZYbfMmoomBiSyNB0-1" source="egB7ZYbfMmoomBiSyNB0-9" target="egB7ZYbfMmoomBiSyNB0-10" edge="1">
                    <mxGeometry width="50" height="50" relative="1" as="geometry">
                        <mxPoint x="290" y="180" as="sourcePoint"/>
                        <mxPoint x="200" y="160" as="targetPoint"/>
                    </mxGeometry>
                </mxCell>
            </root>
        </mxGraphModel>
    </diagram>
</mxfile>